Coordinates
version=1
nRows=5
nColumns=42
inDegrees=yes

Units are S.I. units (second, meters, Newtons, ...)
If the header above contains a line with 'inDegrees', this indicates whether rotational values are in degrees (yes) or radians (no).

endheader
time	pelvis_tilt	pelvis_list	pelvis_rotation	pelvis_tx	pelvis_ty	pelvis_tz	hip_flexion_r	hip_adduction_r	hip_rotation_r	knee_angle_r	knee_adduction_r	knee_angle_r_beta	ankle_angle_r	subtalar_angle_r	mtp_angle_r	hip_flexion_l	hip_adduction_l	hip_rotation_l	knee_angle_l	knee_adduction_l	knee_angle_l_beta	ankle_angle_l	subtalar_angle_l	mtp_angle_l	lumbar_extension	lumbar_bending	lumbar_rotation	arm_flex_r	arm_add_r	arm_rot_r	elbow_flex_r	pro_sup_r	wrist_flex_r	wrist_dev_r	arm_flex_l	arm_add_l	arm_rot_l	elbow_flex_l	pro_sup_l	wrist_flex_l	wrist_dev_l
      1.32000000	     13.81438182	     -5.78922122	      4.07601771	      0.28460728	      0.85304572	     -0.16213161	      5.09249323	      8.25809734	    -14.56187871	     21.13859247	     -1.67746307	      0.36893804	     12.26245565	     -9.97937303	     -7.50787785	    -24.82285347	     -9.61335415	     -1.23766799	     42.87836529	      6.82827433	      0.74836865	     -7.80630512	    -16.13262110	     -7.50787785	    -27.70058996	      6.82461070	      3.26364259	     -5.17906707	     -6.65892828	    -10.52412207	     26.27481701	     90.00000001	      0.00000000	      0.00000000	     20.46914288	     -6.62771979	      4.71149019	     42.07527750	     90.00000001	      0.00000000	      0.00000000
      1.33000000	     13.90458518	     -5.91665396	      3.84262901	      0.29585009	      0.85441278	     -0.16052639	      4.06363842	      8.67744144	    -14.49911479	     20.91794332	     -1.83017652	      0.36508698	     12.92520695	     -9.33127119	     -7.50765753	    -23.40492843	     -9.95014943	     -1.00922006	     45.91861656	      6.75222241	      0.80143105	     -8.21833706	    -17.08127594	     -7.50765753	    -27.83554745	      6.82740344	      3.55397904	     -4.21875209	     -6.80345043	    -10.35747708	     26.38740084	     90.00000001	      0.00000000	      0.00000000	     19.73229955	     -6.54766387	      4.53415863	     40.83428652	     90.00000001	      0.00000000	      0.00000000
      1.34000000	     13.93170740	     -6.05240899	      3.62137219	      0.30687796	      0.85559260	     -0.15893046	      3.15226439	      9.09683313	    -14.63317709	     20.76042728	     -2.06870526	      0.36233781	     13.63184375	     -8.46878718	     -7.50731914	    -21.75931264	    -10.30613610	     -1.36902919	     49.00847616	      6.22755248	      0.85535927	     -7.62779416	    -17.53091161	     -7.50731914	    -27.91274197	      6.82323402	      3.84485019	     -3.22535438	     -6.95743609	    -10.12139250	     26.52536930	     90.00000001	      0.00000000	      0.00000000	     19.00426794	     -6.42247663	      4.17573985	     39.57334527	     90.00000001	      0.00000000	      0.00000000
      1.35000000	     14.05241709	     -6.06987585	      3.45028143	      0.31782155	      0.85693800	     -0.15752764	      2.05686350	      9.34077743	    -14.72633919	     20.47880582	     -2.19854620	      0.35742259	     14.40061374	     -7.60668306	     -7.50697048	    -20.17587726	    -10.47633735	     -2.02101190	     51.79836547	      5.26172905	      0.90405202	     -6.46142148	    -17.78740690	     -7.50697048	    -28.09811520	      6.71559679	      4.05405950	     -2.19199656	     -7.09222477	     -9.85838889	     26.75657466	     90.00000001	      0.00000000	      0.00000000	     18.26196154	     -6.34134533	      3.88644617	     38.36590442	     90.00000001	      0.00000000	      0.00000000
      1.36000000	     14.32959461	     -5.91591636	      3.37222004	      0.32869115	      0.85857376	     -0.15637848	      0.67288732	      9.35437654	    -14.65845401	     20.03113956	     -2.15077073	      0.34960934	     15.10406254	     -6.99722281	     -7.50679919	    -18.75214393	    -10.42024205	     -2.68060672	     54.18139310	      4.08381460	      0.94564370	     -4.93569102	    -18.06149500	     -7.50679919	    -28.44850493	      6.46289811	      4.12995595	     -1.11551698	     -7.18568828	     -9.65946749	     27.04470058	     90.00000001	      0.00000000	      0.00000000	     17.51152417	     -6.35915367	      3.78760876	     37.26136765	     90.00000001	      0.00000000	      0.00000000
